{"title":"Grown Ups CAM XViD - IMAGiNE","uid":5656584,"size":1536150880,"categoryP":"video","categoryS":"movies","magnet":"?xt=urn:btih:7b6ab2463f98021f1a210554a88f3f3565b0953d&amp;dn=Grown+Ups+CAM+XViD+-+IMAGiNE&amp;tr=udp%3A%2F%2Ftracker.openbittorrent.com%3A80&amp;tr=udp%3A%2F%2Fopen.demonii.com%3A1337&amp;tr=udp%3A%2F%2Ftracker.coppersurfer.tk%3A6969&amp;tr=udp%3A%2F%2Fexodus.desync.com%3A6969","seeders":2,"leechers":0,"uploader":"IwannaFan2","files":3,"time":1277827476,"description":"Filename:\nGrown Ups CAM XViD - IMAGiNE\n &lt;a href=&quot;\nhttp://www.imdb.com/title/tt1375670/&quot; rel=&quot;nofollow&quot; target=&quot;_NEW&quot;&gt;\nhttp://www.imdb.com/title/tt1375670/&lt;/a&gt;\n\nDETAILS:\n\nVideo\nID                               : 0\nFormat                           : MPEG-4 Visual\nFormat profile                   : Advanced Simple@L5\nFormat settings, BVOP            : Yes\nFormat settings, QPel            : No\nFormat settings, GMC             : No warppoints\nFormat settings, Matrix          : Default (MPEG)\nMuxing mode                      : Packed bitstream\nCodec ID                         : XVID\nCodec ID/Hint                    : XviD\nDuration                         : 1h 34mn\nBit rate                         : 1 938 Kbps\nWidth                            : 688 pixels\nHeight                           : 384 pixels\nDisplay aspect ratio             : 16/9\nFrame rate                       : 23.976 fps\nResolution                       : 24 bits\nColorimetry                      : 4:2:0\nScan type                        : Progressive\nBits/(Pixel*Frame)               : 0.306\nStream size                      : 1.28 GiB (91%)\nWriting library                  : XviD 1.2.1 (UTC 2008-12-04)\n\nAudio\nID                               : 1\nFormat                           : AC-3\nFormat/Info                      : Audio Coding 3\nCodec ID                         : 2000\nDuration                         : 1h 34mn\nBit rate mode                    : Constant\nBit rate                         : 192 Kbps\nChannel(s)                       : 2 channels\nChannel positions                : L R\nSampling rate                    : 48.0 KHz\nStream size                      : 130 MiB (9%)\nAlignment                        : Aligned on interleaves\nInterleave, duration             : 42 ms (1.00 video frame)\nInterleave, preload duration     : 512 ms\n\n\n\nNOTES:\n\nIMAGiNE bringing you another release.....Grown Ups CAM\n\nFirst off many thanks to slugger and the TA crew for the source files ;-)\n\nWell firstly we cropped the borders and resized the video so we only got a 0.1% AR error.....then we cleaned up\nthe video,by changing the chroma,brightness,contrast,rgb colours,also used a smoother aswell.\nThe audio we left it untouched ,hence the AC3 192 audio......we never upscaled it,this is how the original audio was.\nYet again thanks to slugger and TA.\n\nEnjoy\n","torrent":{"xt":"urn:btih:7b6ab2463f98021f1a210554a88f3f3565b0953d","amp;dn":"Grown+Ups+CAM+XViD+-+IMAGiNE","amp;tr":["udp%3A%2F%2Ftracker.openbittorrent.com%3A80","udp%3A%2F%2Fopen.demonii.com%3A1337","udp%3A%2F%2Ftracker.coppersurfer.tk%3A6969","udp%3A%2F%2Fexodus.desync.com%3A6969"],"infoHash":"7b6ab2463f98021f1a210554a88f3f3565b0953d","infoHashBuffer":{"type":"Buffer","data":[123,106,178,70,63,152,2,31,26,33,5,84,168,143,63,53,101,176,149,61]},"announce":[],"urlList":[]}}